# xmcd
#
# Track frame offsets:
#	150
#	11279
#	31231
#	49559
#	62864
#	88619
#	102115
#	118042
#	135885
#	158720
#	183635
#	195656
#	215613
#	232071
#	248229
#	261837
#	285673
#	297250
#	314564
#	329781
#	343746
# Disc length: 4748 seconds
# Revision: 1
# Processed by: cddbd v1.5.2PL0 Copyright (c) Steve Scherf et al.
#
# Submitted via: libkcddb 0.31
#
DISCID=3a128a15
DTITLE=São João da Maranhensidade - Tá Servido ? São João da Maranhensidade 2007
DYEAR=2007
DGENRE=Sertanejo
TTITLE0=Vem Vê
TTITLE1=Maranhão Meu Tesouro Meu Torrão
TTITLE2=Fininho do Coco
TTITLE3=Luzes e Estrelas
TTITLE4=Bairro Querido
TTITLE5=Você Pediu
TTITLE6=Clareia o Meu Saber
TTITLE7=É Diana ê
TTITLE8=Nordeste Brasileiro
TTITLE9=50 Anos de Cantoria
TTITLE10=Na Palma da mão
TTITLE11=Matraca Matreira
TTITLE12=No Forró
TTITLE13=Ferroada
TTITLE14=Lá Vai Boi
TTITLE15=Lá Vai
TTITLE16=Chorado
TTITLE17=Simpatia
TTITLE18=Nosso Amor
TTITLE19=Nordeste Castigado
TTITLE20=Mandei Carrear
EXTD=
EXTT0=Mestre Felipe
EXTT1=Humberto de Maracanã
EXTT2=Vicente Melo - Jailson Pereira
EXTT3=Inaldo Bartolomeu
EXTT4=Valdinar - Waltinho
EXTT5=Francisco Garcia
EXTT6=Zé Alberto
EXTT7=Zé Carlos
EXTT8=Consita Braga
EXTT9=João Chiador
EXTT10=Donato
EXTT11=Joãozinho Ribeiro
EXTT12=Naná de Nazaré - Peixinho
EXTT13=Daffé
EXTT14=Zequinha de Coxinho
EXTT15=Basilio Durans
EXTT16=Gilberto
EXTT17=Marcelo Costa
EXTT18=Eno Cabessa
EXTT19=Oberdan Oliveira - Cleto Junior
EXTT20=Mestre Felipe
PLAYORDER=
